<?xml version="1.0" encoding="UTF-8"?>
<svg width="671px" height="659px" viewBox="0 0 671 659" version="1.1" xmlns="http://www.w3.org/2000/svg" xmlns:xlink="http://www.w3.org/1999/xlink">
    <!-- Generator: Sketch 57.1 (83088) - https://sketch.com -->
    <title>Group 43</title>
    <desc>Created with Sketch.</desc>
    <g id="New" stroke="none" stroke-width="1" fill="none" fill-rule="evenodd">
        <g id="Group-43">
            <path d="M661.881533,92.2304525 C660.532376,83.7337477 653.560636,76.7445691 644.136181,74.4473864 L342.082055,0.788220838 C337.775885,-0.262740279 333.22739,-0.262740279 328.917945,0.788220838 L26.8638192,74.4473864 C17.4393637,76.7445691 10.4676244,83.7308762 9.11846678,92.2304525 C7.36652665,103.27703 -32.6006308,364.282936 69.9124264,494.12545 C172.304321,623.812903 323.354307,657.047395 329.733334,658.399861 C331.629358,658.801868 333.561405,659 335.5,659 C337.438595,659 339.370642,658.798997 341.266666,658.399861 C347.648968,657.047395 498.698953,623.812903 601.087574,494.12545 C703.600631,364.285808 663.633473,103.279902 661.881533,92.2304525 Z" id="Path" fill="#F2F4F6"></path>
            <path d="M576.286852,131.97534 C575.293582,124.884008 570.160886,119.050854 563.222464,117.133631 L340.845805,55.6578474 C337.67554,54.7807175 334.326871,54.7807175 331.154195,55.6578474 L108.777536,117.133631 C101.839114,119.050854 96.706418,124.881611 95.7131484,131.97534 C94.4233445,141.19479 64.9989395,359.029765 140.470549,467.396051 C215.852958,575.632924 327.058163,603.37036 331.754496,604.499125 C333.150377,604.834639 334.572778,605 336,605 C337.427222,605 338.849623,604.832243 340.245504,604.499125 C344.944248,603.37036 456.149453,575.632924 531.529451,467.396051 C607.001061,359.032161 577.576655,141.197186 576.286852,131.97534 Z" id="Path" fill="#FFFFFF"></path>
            <path d="M502.338033,177.017707 C501.650385,172.118241 498.09698,168.088063 493.293457,166.763435 L339.340386,124.289258 C337.145586,123.683241 334.827277,123.683241 332.630809,124.289258 L178.677738,166.763435 C173.874215,168.088063 170.32081,172.116586 169.633162,177.017707 C168.74022,183.387509 148.369478,333.891674 200.619055,408.762925 C252.806876,483.544765 329.795095,502.708812 333.046402,503.488686 C334.012781,503.720496 334.99752,503.834745 335.985597,503.834745 C336.973674,503.834745 337.958413,503.71884 338.924792,503.488686 C342.177769,502.708812 419.165988,483.544765 471.35214,408.762925 C523.601716,333.893329 503.230974,183.389165 502.338033,177.017707 Z" id="Path" fill="#3fb3a4"></path>
            <path d="M335.985597,123.8471 C334.85289,123.8471 334.834051,123.7142 332.650428,124.320167 L179.597667,166.790886 C174.822235,168.115405 171.28961,172.1436 170.605983,177.044323 C169.718264,183.413606 149.466649,333.905513 201.410672,408.770668 C253.293301,483.546417 329.831297,502.708903 333.06359,503.488714 C334.024318,503.720505 335.003299,503.834745 335.985597,503.834745 C335.985597,502.586589 335.985597,124.400824 335.985597,123.8471 Z" id="Path-Copy" fill="#3fb3a4;"></path>
            <g id="ssl" transform="translate(262.985597, 213.834745)" fill="#FFFFFF" fill-rule="nonzero">
                <path d="M74.5144028,0.938739302 C103.74916,0.938739302 127.448613,24.863523 127.448613,54.3762393 L127.448613,54.3762393 L127.448613,76.1470726 L133.330192,76.1470726 C141.992343,76.1470726 149.014403,83.2358974 149.014403,91.980406 L149.014403,91.980406 L149.014403,175.105406 C149.014403,183.849915 141.992343,190.938739 133.330192,190.938739 L133.330192,190.938739 L15.6986133,190.938739 C7.036463,190.938739 0.0144027577,183.849915 0.0144027577,175.105406 L0.0144027577,175.105406 L0.0144027577,91.980406 C0.0144027577,83.2358974 7.036463,76.1470726 15.6986133,76.1470726 L15.6986133,76.1470726 L21.5801922,76.1470726 L21.5801922,54.3762393 C21.5801922,24.863523 45.2796455,0.938739302 74.5144028,0.938739302 Z M106.418651,112.20867 C104.555719,110.354786 101.53531,110.354786 99.6723782,112.20867 L99.6723782,112.20867 L65.4036491,146.310957 L49.3564274,130.341676 C47.4934956,128.487792 44.4730864,128.487792 42.6101546,130.341676 L42.6101546,130.341676 L42.0479652,130.901135 C40.1850335,132.755018 40.1850335,135.760758 42.0479652,137.614641 L42.0479652,137.614641 L62.0305127,157.500134 C63.8934445,159.354017 66.9138537,159.354017 68.7767854,157.500134 L68.7767854,157.500134 L106.98084,119.481635 C108.843772,117.627752 108.843772,114.622012 106.98084,112.768129 L106.98084,112.768129 Z M74.5144028,20.7304065 C56.1073336,20.7304065 41.1854554,35.7941589 41.1854554,54.3762393 L41.1854554,54.3762393 L41.1854554,72.1887393 C41.1854554,74.3748664 42.9409704,76.1470726 45.106508,76.1470726 L45.106508,76.1470726 L103.922297,76.1470726 C106.087835,76.1470726 107.84335,74.3748664 107.84335,72.1887393 L107.84335,72.1887393 L107.84335,54.3762393 C107.84335,35.7941589 92.9214719,20.7304065 74.5144028,20.7304065 Z" id="Combined-Shape"></path>
            </g>
        </g>
    </g>
</svg>